<svg width="85" height="114" viewBox="0 0 85 114" fill="none" xmlns="http://www.w3.org/2000/svg">
<path d="M77.0957 13.0947L42.4898 0L8.21477 12.9222C3.83815 15.0968 0.000961102 16.4037 0.000961102 20.6954V42.0966C-0.0704033 57.0744 3.83373 71.7889 11.2937 84.6584C17.6856 95.589 27.5788 106.844 42.846 114C56.8563 109.206 67.3144 96.4254 73.7063 85.4896C81.1668 72.6223 85.071 57.9092 84.999 42.933V23.6855C84.9736 17.559 81.8947 14.5689 77.0957 13.0947Z" fill="url(#paint0_angular_1_86)"/>
<path d="M57.0995 76.7765C54.656 78.3391 51.9842 79.4889 49.186 80.1819C42.4791 81.8658 35.4007 80.8905 29.363 77.4505C23.3253 74.0105 18.7722 68.3588 16.6119 61.6229C14.4517 54.887 14.8432 47.5621 17.7084 41.1096C20.5735 34.6571 25.7017 29.5514 32.0697 26.811C38.4377 24.0707 45.5775 23.8972 52.0646 26.3251C58.5517 28.7531 63.9091 33.604 67.0681 39.9101C70.2271 46.2162 70.9554 53.5139 69.1077 60.3472C67.26 67.1805 62.9721 73.0471 57.0995 76.7765Z" fill="#407BFF"/>
<path d="M51.0268 46.8496C51.0293 48.5482 50.5412 50.2094 49.6244 51.623C48.7075 53.0365 47.403 54.139 45.876 54.7908C44.349 55.4426 42.668 55.6145 41.0459 55.2847C39.4237 54.9549 37.9333 54.1382 36.7631 52.9381C35.5929 51.7379 34.7956 50.2082 34.4721 48.5424C34.1486 46.8767 34.3133 45.1498 34.9456 43.5803C35.5778 42.0107 36.6491 40.6691 38.0238 39.7252C39.3986 38.7812 41.015 38.2773 42.6687 38.2773C44.8832 38.2773 47.0072 39.1801 48.5743 40.7873C50.1414 42.3946 51.0234 44.5749 51.0268 46.8496Z" fill="#1547B7"/>
<path d="M57.0999 73.2411V76.777C54.6564 78.3396 51.9846 79.4894 49.1864 80.1824C45.6495 81.0769 41.9742 81.2352 38.3769 80.6481C34.7795 80.061 31.333 78.7404 28.2402 76.7639V73.2411C28.2402 69.31 29.7605 65.5399 32.4666 62.7602C35.1728 59.9805 38.843 58.4189 42.6701 58.4189C46.4971 58.4189 50.1674 59.9805 52.8735 62.7602C55.5796 65.5399 57.0999 69.31 57.0999 73.2411Z" fill="#1547B7"/>
<defs>
<radialGradient id="paint0_angular_1_86" cx="0" cy="0" r="1" gradientUnits="userSpaceOnUse" gradientTransform="translate(42.7579 18.24) rotate(90.1543) scale(95.7603 71.4003)">
<stop stop-color="#EDF0F4"/>
<stop offset="1" stop-color="#D8DDE6"/>
</radialGradient>
</defs>
</svg>
