<svg width="55" height="46" viewBox="0 0 55 46" fill="none" xmlns="http://www.w3.org/2000/svg">
<g clip-path="url(#clip0_1_94)">
<path fill-rule="evenodd" clip-rule="evenodd" d="M0.83665 11.4263C-0.278883 12.5419 -0.278883 14.3505 0.83665 15.466C1.95218 16.5816 3.76082 16.5816 4.87635 15.466C18.8016 1.54075 37.9446 3.40398 49.116 15.5132C50.1857 16.6727 51.9929 16.7455 53.1524 15.6758C54.3119 14.6061 54.3847 12.7989 53.315 11.6394C40.0204 -2.77144 17.1366 -4.8736 0.83665 11.4263ZM32.9536 21.3062C27.0356 18.9363 19.8578 20.0954 15.0386 25.5703C13.9962 26.7545 12.1912 26.8694 11.007 25.8271C9.82283 24.7847 9.70787 22.9797 10.7502 21.7955C18.4204 13.0819 30.4054 12.4687 38.9052 17.9986C36.7148 18.74 34.7037 19.8699 32.9536 21.3062ZM27.723 28.0828C26.0309 27.8686 24.2611 28.4112 22.9617 29.7106C20.7306 31.9417 20.7306 35.559 22.9617 37.7901C23.9003 38.7287 25.0843 39.2724 26.3072 39.4213C26.1054 38.3115 26 37.168 26 36C26 33.1745 26.6168 30.493 27.723 28.0828Z" fill="white"/>
<path fill-rule="evenodd" clip-rule="evenodd" d="M43.5411 26C41.3049 26 39.4921 27.8128 39.4921 30.0491V32.6384C38.6074 33.0816 38 33.9966 38 35.0534V43.3005C38 44.7913 39.2085 45.9998 40.6994 45.9998H48.9464C50.4372 45.9998 51.6457 44.7913 51.6457 43.3005V35.0534C51.6457 33.9957 51.0374 33.0801 50.1515 32.6373V30.0491C50.1515 27.8128 48.3386 26 46.1024 26H43.5411ZM47.4521 32.3541V30.0491C47.4521 29.3036 46.8478 28.6994 46.1024 28.6994H43.5411C42.7957 28.6994 42.1915 29.3036 42.1915 30.0491V32.3541H47.4521ZM42.5487 39.1772C42.5487 37.9211 43.567 36.9029 44.823 36.9029C46.0791 36.9029 47.0973 37.9211 47.0973 39.1772C47.0973 40.4332 46.0791 41.4515 44.823 41.4515C43.567 41.4515 42.5487 40.4332 42.5487 39.1772Z" fill="#FF4F64"/>
</g>
<defs>
<clipPath id="clip0_1_94">
<rect width="55" height="46" fill="white"/>
</clipPath>
</defs>
</svg>
